<?xml version="1.0" encoding="iso-8859-1"?>
<!-- Generator: Adobe Illustrator 18.1.1, SVG Export Plug-In . SVG Version: 6.00 Build 0)  -->
<svg version="1.1" id="Capa_1" xmlns="http://www.w3.org/2000/svg" xmlns:xlink="http://www.w3.org/1999/xlink" x="24px" y="24px"
	 viewBox="0 0 44.895 44.895" style="enable-background:new 0 0 44.895 44.895;" xml:space="preserve">
<g>
	<path style="fill:#010002;" d="M33.178,44.895C33.177,44.895,33.177,44.895,33.178,44.895c-0.15,0-0.302-0.003-0.452-0.008
		c-5.714-0.188-12.627-3.093-18.494-7.771c-0.948-0.758-2.313-1.98-3.109-2.785c-5.81-5.863-9.547-13.791-9.998-21.205
		C0.774,7.351,3.199,1.085,9.406,0.106C9.854,0.036,10.31,0,10.761,0c4.887,0,9.228,4.16,10.098,9.677
		c0.552,3.501-0.337,6.944-2.439,9.444c-0.404,0.48-0.532,1.133-0.376,1.395c1.494,2.515,3.555,4.723,5.962,6.388
		c0.146,0.1,0.279,0.18,0.398,0.243c1.74-2.168,4.438-3.402,7.468-3.402c2.488,0,5.027,0.852,7.149,2.396
		c4.008,2.916,5.695,7.573,4.299,11.865C41.938,42.255,38.051,44.895,33.178,44.895z M10.761,3c-0.296,0-0.595,0.023-0.889,0.07
		c-4.967,0.783-5.954,6.575-5.753,9.874c0.408,6.708,3.823,13.914,9.135,19.276c0.715,0.723,1.993,1.867,2.849,2.551
		c4.152,3.312,10.726,6.921,16.72,7.118c0.119,0.004,0.237,0.006,0.354,0.006h0.001c4.22,0,6.532-2.488,7.289-4.816
		c0.786-2.414,0.354-5.918-3.211-8.512c-1.613-1.175-3.525-1.822-5.384-1.822c-2.209,0-4.137,0.908-5.289,2.491
		c-0.072,0.099-0.143,0.203-0.207,0.31c-0.315,0.516-0.87,0.81-1.523,0.81c-1.019,0.001-2.124-0.688-2.552-0.983
		c-2.76-1.908-5.124-4.44-6.836-7.324c-0.974-1.641-0.341-3.668,0.66-4.857c1.52-1.808,2.182-4.442,1.771-7.046
		C17.253,6.071,14.187,3,10.761,3z"/>
</g>
<g>
</g>
<g>
</g>
<g>
</g>
<g>
</g>
<g>
</g>
<g>
</g>
<g>
</g>
<g>
</g>
<g>
</g>
<g>
</g>
<g>
</g>
<g>
</g>
<g>
</g>
<g>
</g>
<g>
</g>
</svg>
