<?xml version="1.0" encoding="utf-8"?>

<!DOCTYPE svg PUBLIC "-//W3C//DTD SVG 1.1//EN" "http://www.w3.org/Graphics/SVG/1.1/DTD/svg11.dtd">
<!-- Uploaded to: SVG Repo, www.svgrepo.com, Generator: SVG Repo Mixer Tools -->
<svg version="1.1" id="_x32_" xmlns="http://www.w3.org/2000/svg" xmlns:xlink="http://www.w3.org/1999/xlink" 
	 viewBox="0 0 512 512"  xml:space="preserve">
<style type="text/css">
	.st0{fill:#000000;}
</style>
<g>
	<path class="st0" d="M504.955,146.228c-7.801-14.384-20.725-26.471-36.951-37.192c-24.395-16.005-56.712-28.902-93.322-38.056
		C338.079,61.859,297.217,56.595,256,56.589c-62.82,0.034-124.769,12.168-172.16,31.775c-23.698,9.85-43.815,21.529-58.742,35.284
		c-7.446,6.89-13.62,14.357-18.054,22.58c-4.426,8.19-7.058,17.264-7.045,26.646c0,49.239,0,51.717,0,51.717
		c0.007,20.035,16.232,36.268,36.275,36.274h12.362v120.671c0.007,40.808,33.068,73.868,73.869,73.875h266.988
		c40.802-0.007,73.862-33.067,73.869-73.875V260.865h12.362c20.036-0.007,36.268-16.239,36.275-36.274c0,0,0-2.478,0-51.717
		C512.006,163.491,509.381,154.418,504.955,146.228z M76.066,260.865h45.958c20.035-0.007,36.268-16.239,36.274-36.274v-38.913
		c-0.007-4.447,3.322-8.224,7.728-8.772l0.516-0.067l0.516-0.107h0.006c1.024-0.201,30.932-6.06,88.936-6.06
		c29.94,0,52.393,1.56,67.253,3.1c7.426,0.764,12.957,1.527,16.58,2.09c1.808,0.281,3.141,0.509,3.992,0.663l0.917,0.167l0.194,0.04
		h0.007l0.509,0.107l0.522,0.067c4.406,0.548,7.734,4.325,7.727,8.772v38.913c0.007,20.035,16.232,36.268,36.275,36.274h45.958
		v120.671c-0.007,12.87-5.176,24.395-13.6,32.846c-8.451,8.424-19.976,13.594-32.84,13.6H122.506
		c-12.864-0.007-24.389-5.176-32.84-13.6c-8.424-8.451-13.594-19.976-13.6-32.846V260.865z M381.13,224.591v-38.913
		c-0.007-17.92-13.092-32.994-30.683-35.76l0.013-0.054c-0.87-0.181-32.679-6.623-94.46-6.623c-61.782,0-93.59,6.442-94.46,6.623
		l0.013,0.054c-17.591,2.765-30.676,17.84-30.683,35.76v38.913c-0.007,4.882-3.964,8.839-8.846,8.846H36.275
		c-4.888-0.007-8.84-3.964-8.846-8.846c0,0,0-2.478,0-51.717c0.007-4.326,1.139-8.739,3.771-13.648
		c4.54-8.558,14.049-18.234,27.864-27.268c20.672-13.627,50.552-25.828,84.891-34.366c34.346-8.565,73.18-13.581,112.046-13.574
		c59.21-0.034,118.407,11.705,161.653,29.679c21.609,8.94,39.188,19.473,50.625,30.087c5.732,5.296,9.904,10.56,12.523,15.442
		c2.631,4.909,3.756,9.322,3.77,13.648c0,49.239,0,51.717,0,51.717c-0.007,4.882-3.958,8.839-8.846,8.846h-85.748
		C385.088,233.429,381.137,229.472,381.13,224.591z"/>
	<rect x="184.971" y="350.163" class="st0" width="32.096" height="32.103"/>
	<rect x="184.971" y="299.396" class="st0" width="32.096" height="32.103"/>
	<rect x="184.971" y="248.637" class="st0" width="32.096" height="32.096"/>
	<rect x="239.955" y="350.163" class="st0" width="32.096" height="32.103"/>
	<rect x="239.955" y="299.396" class="st0" width="32.096" height="32.103"/>
	<rect x="239.955" y="248.637" class="st0" width="32.096" height="32.096"/>
	<rect x="294.94" y="350.163" class="st0" width="32.096" height="32.103"/>
	<rect x="294.94" y="299.396" class="st0" width="32.096" height="32.103"/>
	<rect x="294.94" y="248.637" class="st0" width="32.096" height="32.096"/>
</g>
</svg>